<svg xmlns="http://www.w3.org/2000/svg" xmlns:xlink="http://www.w3.org/1999/xlink" width="174" height="36" viewBox="0 0 174 36">
  <!-- <defs>
    <linearGradient id="linear-gradient" x1="0.5" x2="0.5" y2=".5" gradientUnits="objectBoundingBox">
      <stop offset="0" stop-color="#4ac426"/>
      <stop offset="1" stop-color="#26be2d"/>
    </linearGradient>
    <linearGradient id="linear-gradient-2" x1="0.5" y1="1" x2="0.5" y2="1" gradientUnits="objectBoundingBox">
      <stop offset="0" stop-color="#fff"/>
      <stop offset="1" stop-color="#f0fff4"/>
    </linearGradient>
    <linearGradient id="linear-gradient-3" x1="0.5" y1=".5" x2="0.5" y2=".5" gradientUnits="objectBoundingBox">
      <stop offset="0" stop-color="#2fc536"/>
      <stop offset="1" stop-color="#4ac426"/>
    </linearGradient>
  </defs>
  <g id="Group_102" data-name="Group 102" transform="translate(-618 -179)">
    <g id="Group_39" data-name="Group 39">
      <rect id="Rectangle_36" data-name="Rectangle 36" width="161" height="27" rx="12.467" transform="translate(631 183)" fill="url(#linear-gradient)"/>
      <text id="Assured_Certified" data-name="Assured &amp; Certified" transform="translate(657.397 187.357)" fill="#fff" font-size="13" font-family="Roboto-Medium, Roboto" font-weight="500"><tspan x="0" y="14">WOW  Certified</tspan></text>
      <g id="Group">
        <path id="Vector" d="M12.659,29.429a2.1,2.1,0,0,1-.763-.143A24.037,24.037,0,0,1,4.876,25.1,13.29,13.29,0,0,1,0,14.906V5.2A2.116,2.116,0,0,1,1.051,3.372,6.4,6.4,0,0,0,3.372,1.051,2.116,2.116,0,0,1,5.2,0h14.92a2.116,2.116,0,0,1,1.825,1.051,6.4,6.4,0,0,0,2.321,2.321A2.116,2.116,0,0,1,25.313,5.2v9.71a13.292,13.292,0,0,1-4.861,10.2,23.882,23.882,0,0,1-7.034,4.179A2.1,2.1,0,0,1,12.659,29.429Z" transform="translate(621.164 182.164)" fill="url(#linear-gradient-2)"/>
        <g id="Group-2" data-name="Group">
          <g id="Group-3" data-name="Group">
            <path id="Vector-2" data-name="Vector" d="M30.586,4.219a3.168,3.168,0,0,1-3.164-3.164A1.055,1.055,0,0,0,26.367,0H5.273A1.055,1.055,0,0,0,4.219,1.055,3.168,3.168,0,0,1,1.055,4.219,1.055,1.055,0,0,0,0,5.273v12.8a15.663,15.663,0,0,0,2.472,8.542,20.1,20.1,0,0,0,5.352,5.5,25.449,25.449,0,0,0,8,3.888,25.408,25.408,0,0,0,8-3.888,20.1,20.1,0,0,0,5.352-5.5,15.664,15.664,0,0,0,2.472-8.542V5.273A1.055,1.055,0,0,0,30.586,4.219ZM27.422,18.07a12.279,12.279,0,0,1-4.507,9.414A22.8,22.8,0,0,1,16.2,31.468a1.055,1.055,0,0,1-.761,0,22.957,22.957,0,0,1-6.7-3.987A12.277,12.277,0,0,1,4.219,18.07V8.36a1.055,1.055,0,0,1,.525-.912,7.458,7.458,0,0,0,2.7-2.7,1.055,1.055,0,0,1,.912-.525H23.28a1.055,1.055,0,0,1,.912.525,7.457,7.457,0,0,0,2.7,2.7,1.055,1.055,0,0,1,.525.912Z" transform="translate(618 179)" fill="url(#linear-gradient-3)"/>
          </g>
        </g>
      </g>
    </g>
    <circle id="Ellipse_14" data-name="Ellipse 14" cx="10" cy="10" r="10" transform="translate(624 186)" fill="#47b92b"/>
    <path id="Vector_4" data-name="Vector 4" d="M0,5.4,2.7,8.5,11.5,0" transform="translate(628 192.5)" fill="none" stroke="#fff" stroke-width="2"/>
  </g> -->
</svg>
