<svg id="facebook_1" data-name="facebook 1" xmlns="http://www.w3.org/2000/svg" width="24" height="25" viewBox="0 0 24 25">
  <g id="Group">
    <g id="Group-2" data-name="Group">
      <path id="Vector" d="M21.188,0H2.813A2.876,2.876,0,0,0,0,2.93V22.07A2.876,2.876,0,0,0,2.813,25H21.188A2.876,2.876,0,0,0,24,22.07V2.93A2.876,2.876,0,0,0,21.188,0Zm.938,22.07a.959.959,0,0,1-.937.977H15.844V15.088h2.9l.479-3.027H15.844v-2.1A1.412,1.412,0,0,1,17.25,8.5h1.922V5.469H17.25a4.4,4.4,0,0,0-4.311,4.5v2.091H10.125v3.027h2.814v7.959H2.813a.959.959,0,0,1-.937-.977V2.93a.959.959,0,0,1,.938-.977H21.188a.959.959,0,0,1,.938.977Z"/>
    </g>
  </g>
</svg>
