<svg xmlns="http://www.w3.org/2000/svg" width="23.995" height="25" viewBox="0 0 23.995 25">
  <g id="instagram_1" data-name="instagram 1" transform="translate(-0.042)">
    <path id="Vector" d="M23.934,7.35a9.468,9.468,0,0,0-.558-3.033A6.131,6.131,0,0,0,21.989,2.1,5.889,5.889,0,0,0,19.865.659,8.486,8.486,0,0,0,16.953.078C15.669.015,15.261,0,12,0S8.336.015,7.056.073A8.467,8.467,0,0,0,4.145.654,5.839,5.839,0,0,0,2.016,2.1,6.186,6.186,0,0,0,.633,4.312,9.494,9.494,0,0,0,.075,7.345C.014,8.683,0,9.108,0,12.5s.014,3.819.07,5.152a9.468,9.468,0,0,0,.558,3.033A6.2,6.2,0,0,0,2.016,22.9,5.889,5.889,0,0,0,4.14,24.346a8.487,8.487,0,0,0,2.912.581C8.331,24.985,8.739,25,12,25s3.666-.014,4.946-.073a8.462,8.462,0,0,0,2.911-.581,6.272,6.272,0,0,0,3.512-3.658,9.5,9.5,0,0,0,.558-3.033c.056-1.333.07-1.758.07-5.152S23.991,8.683,23.934,7.35ZM21.773,17.557a7.1,7.1,0,0,1-.413,2.32,4.068,4.068,0,0,1-2.279,2.374,6.372,6.372,0,0,1-2.227.43c-1.266.059-1.646.073-4.848.073s-3.587-.014-4.848-.073a6.346,6.346,0,0,1-2.227-.43,3.682,3.682,0,0,1-1.378-.933,3.907,3.907,0,0,1-.9-1.436,7.128,7.128,0,0,1-.412-2.32c-.056-1.319-.07-1.714-.07-5.05s.014-3.736.07-5.05a7.1,7.1,0,0,1,.412-2.32,3.818,3.818,0,0,1,.9-1.436,3.714,3.714,0,0,1,1.378-.933,6.376,6.376,0,0,1,2.227-.43c1.266-.059,1.646-.073,4.848-.073s3.587.015,4.848.073a6.35,6.35,0,0,1,2.227.43,3.679,3.679,0,0,1,1.378.933,3.906,3.906,0,0,1,.9,1.436,7.131,7.131,0,0,1,.413,2.32c.056,1.319.07,1.714.07,5.05S21.829,16.239,21.773,17.557Z" transform="translate(0.042 0)"/>
    <path id="Vector-2" data-name="Vector" d="M6.165,0A6.3,6.3,0,0,0,0,6.422a6.3,6.3,0,0,0,6.165,6.422,6.3,6.3,0,0,0,6.165-6.422A6.3,6.3,0,0,0,6.165,0Zm0,10.588a4.086,4.086,0,0,1-4-4.166,4.086,4.086,0,0,1,4-4.166,4.086,4.086,0,0,1,4,4.166,4.086,4.086,0,0,1-4,4.166Z" transform="translate(5.879 6.08)"/>
    <path id="Vector-3" data-name="Vector" d="M2.879,1.5A1.47,1.47,0,0,1,1.439,3,1.47,1.47,0,0,1,0,1.5,1.47,1.47,0,0,1,1.439,0,1.47,1.47,0,0,1,2.879,1.5Z" transform="translate(17.014 4.327)"/>
  </g>
</svg>
