<svg xmlns="http://www.w3.org/2000/svg" width="27" height="22.098" viewBox="0 0 27 22.098">
  <g id="twitter_1" data-name="twitter 1" transform="translate(0 -2.479)">
    <path id="Vector" d="M27,2.951c-1.7.078-1.661.072-1.853.088L26.153.167s-3.14,1.155-3.936,1.362A6.3,6.3,0,0,0,14.8.932a5.138,5.138,0,0,0-2.47,5.284,13.7,13.7,0,0,1-8.879-5L2.7.322,2.148,1.344A6.177,6.177,0,0,0,1.49,5.5a5.974,5.974,0,0,0,.579,1.623L1.43,6.878,1.354,7.946a5.7,5.7,0,0,0,.966,3.386,6.021,6.021,0,0,0,.752.928l-.33-.051.4,1.223A5.947,5.947,0,0,0,6.2,16.975c-1.426.605-2.577.991-4.47,1.614L0,19.158l1.6.875a16.791,16.791,0,0,0,4.895,1.781c4.734.742,10.063.138,13.651-3.094C23.168,16,24.16,12.127,23.954,8.1a2.517,2.517,0,0,1,.47-1.639C25.094,5.564,27,2.957,27,2.951Zm-3.841,2.56a4.1,4.1,0,0,0-.784,2.667c.208,4.064-.9,7.216-3.287,9.367-2.791,2.513-7.292,3.5-12.349,2.707a12.246,12.246,0,0,1-2.646-.786A41.954,41.954,0,0,0,8.886,17.5l2.763-1.308-3.051-.2a4.315,4.315,0,0,1-3.426-1.952,5.472,5.472,0,0,0,1.161-.194l2.91-.81-2.934-.719A4.37,4.37,0,0,1,3.64,10.463a4.475,4.475,0,0,1-.578-1.276,7.324,7.324,0,0,0,1.19.19l2.716.269L4.816,7.967A4.529,4.529,0,0,1,3.1,3.194,15.739,15.739,0,0,0,14.191,7.968a9.367,9.367,0,0,0-.162-1.342,3.632,3.632,0,0,1,1.6-4.348A4.725,4.725,0,0,1,21.2,2.74a1.416,1.416,0,0,0,1.3.348,10.933,10.933,0,0,0,1.07-.325L22.887,4.71h.871Z" transform="translate(0 2.478)"/>
  </g>
</svg>
